# xmcd CD database file
#
# Track frame offsets:
#	150
#	3719
#	39425
#	66824
#	80708
#	93098
#	102092
#	113164
#	120236
#	123914
#	137323
#	164250
#	183499
#	188497
#	192797
#	209306
#	220603
#	244398
#	253900
#
# Disc length: 3813 seconds
#
# Revision: 4
# Processed by: cddbd v1.5.2PL0 Copyright (c) Steve Scherf et al.
# Submitted via: CDex 1.51
#
DISCID=fb0ee313
DTITLE=Liszt - L'Oeuvre pour Piano - France Clidat  [CD 14-14]
DYEAR=1974
DGENRE=Piano
TTITLE0=Scherzo en sol mineur, S.153
TTITLE1=Album d'un voyageur, S.156 - Livre I ''Impressions et poésies'' - N°1 - Lyon
TTITLE2=Apparition, S.155 - N°1  (Senza lentezza quasi allegretto)
TTITLE3=Apparition, S.155 - N°2  (Vivamente)
TTITLE4=Impromptu, S.191
TTITLE5=5 Klavierstücke,, S.192 - N°1  en mi majeur - Adagio  ...  { 5 petites pièces pour piano }
TTITLE6=5 Klavierstücke,, S.192 - N°2  en la bémol majeur - Moderato
TTITLE7=5 Klavierstücke,, S.192 - N°3  en fa dièse majeur - Adagio
TTITLE8=5 Klavierstücke,, S.192 - N°4  en fa dièse majeur - Andantino
TTITLE9=5 Klavierstücke,, S.192 - N°5  Sospiri ! - Andante
TTITLE10=Élégie N°1, S.196
TTITLE11=Élégie N°2, S.197
TTITLE12=Toccata, S.197a
TTITLE13=Carrousel de Madame Pelet-Narbone, S.214a
TTITLE14=Romance oubliée, S.527
TTITLE15=Schlaflos, Frage und Antwort, S.203  (Insomnie, Question et Réponse)
TTITLE16=Andacht, S.204  (Recueillement)
TTITLE17=En rêve, Nocturne, S.207
TTITLE18=Unstern ! - Sinistre, S.208  (Étoile du malheur !)
EXTD=YEAR: 1974
EXTT0=
EXTT1=
EXTT2=
EXTT3=
EXTT4=
EXTT5=
EXTT6=
EXTT7=
EXTT8=
EXTT9=
EXTT10=
EXTT11=
EXTT12=
EXTT13=
EXTT14=
EXTT15=
EXTT16=
EXTT17=
EXTT18=
PLAYORDER=
